<svg viewBox="0 0 189 43" xmlns="http://www.w3.org/2000/svg" data-logo="logo">
        <g transform="translate(0, 1) rotate(0)" id="logogram"><path fill="#007BFF" d="M13.7708 0.619934C11.5144 0.619934 9.35045 1.51627 7.75497 3.11176L0.0561523 10.8106V14.3345C0.0561523 16.8242 1.12559 19.0641 2.83016 20.6199C1.12559 22.1757 0.0561523 24.4156 0.0561523 26.9053V30.4293L7.75497 38.1281C9.35045 39.7236 11.5144 40.6199 13.7708 40.6199C16.2604 40.6199 18.5003 39.5505 20.0562 37.8459C21.612 39.5505 23.8519 40.6199 26.3415 40.6199C28.5979 40.6199 30.7619 39.7236 32.3573 38.1281L40.0562 30.4293V26.9053C40.0562 24.4156 38.9867 22.1757 37.2821 20.6199C38.9867 19.0641 40.0562 16.8242 40.0562 14.3345V10.8106L32.3573 3.11176C30.7619 1.51627 28.5979 0.619934 26.3415 0.619934C23.8519 0.619934 21.612 1.68938 20.0562 3.39394C18.5003 1.68938 16.2604 0.619934 13.7708 0.619934ZM25.815 20.6199C25.7191 20.5324 25.625 20.4425 25.5327 20.3503L20.0562 14.8737L14.5796 20.3503C14.4873 20.4425 14.3932 20.5324 14.2973 20.6199C14.3932 20.7074 14.4873 20.7973 14.5796 20.8895L20.0562 26.3661L25.5327 20.8895C25.625 20.7973 25.7191 20.7074 25.815 20.6199ZM22.2784 30.4293L22.2784 32.1123C22.2784 34.3563 24.0975 36.1755 26.3415 36.1755C27.4192 36.1755 28.4527 35.7474 29.2146 34.9854L35.6117 28.5884V26.9053C35.6117 24.6613 33.7926 22.8422 31.5485 22.8422C30.4709 22.8422 29.4374 23.2702 28.6754 24.0322L22.2784 30.4293ZM17.8339 30.4293L11.4369 24.0322C10.6749 23.2702 9.64139 22.8422 8.56377 22.8422C6.31974 22.8422 4.5006 24.6613 4.5006 26.9053V28.5884L10.8977 34.9854C11.6597 35.7474 12.6931 36.1755 13.7708 36.1755C16.0148 36.1755 17.8339 34.3563 17.8339 32.1123V30.4293ZM17.8339 9.12755V10.8106L11.4369 17.2076C10.6749 17.9696 9.64139 18.3977 8.56377 18.3977C6.31974 18.3977 4.5006 16.5786 4.5006 14.3345V12.6515L10.8977 6.25445C11.6597 5.49246 12.6931 5.06438 13.7708 5.06438C16.0148 5.06438 17.8339 6.88352 17.8339 9.12755ZM28.6754 17.2076L22.2784 10.8106L22.2784 9.12755C22.2784 6.88352 24.0975 5.06438 26.3415 5.06438C27.4192 5.06438 28.4527 5.49246 29.2146 6.25445L35.6117 12.6515V14.3345C35.6117 16.5786 33.7926 18.3977 31.5485 18.3977C30.4709 18.3977 29.4374 17.9696 28.6754 17.2076Z" clip-rule="evenodd" fill-rule="evenodd"></path></g>
        <g transform="translate(47, 8.5)" id="logotype"><path d="M13.52 26L8.31 26L8.31 0.54L25.06 0.54L25.06 4.86L13.52 4.86L13.52 11.97L23.93 11.97L23.93 16.22L13.52 16.22L13.52 26ZM31.79 26.38L31.79 26.38Q29.98 26.38 28.53 25.74Q27.09 25.09 26.26 23.82Q25.43 22.55 25.43 20.65L25.43 20.65Q25.43 19.06 26.02 17.98Q26.61 16.91 27.63 16.26Q28.64 15.61 29.93 15.27Q31.22 14.93 32.64 14.79L32.64 14.79Q34.30 14.62 35.32 14.47Q36.33 14.33 36.80 14.01Q37.27 13.70 37.27 13.08L37.27 13.08L37.27 12.99Q37.27 12.17 36.93 11.61Q36.59 11.05 35.91 10.75Q35.24 10.45 34.28 10.45L34.28 10.45Q33.29 10.45 32.56 10.75Q31.82 11.05 31.36 11.54Q30.90 12.04 30.68 12.65L30.68 12.65L25.98 11.88Q26.47 10.21 27.62 9.05Q28.76 7.88 30.46 7.27Q32.16 6.65 34.30 6.65L34.30 6.65Q35.84 6.65 37.29 7.02Q38.74 7.39 39.90 8.16Q41.05 8.93 41.72 10.17Q42.40 11.41 42.40 13.13L42.40 13.13L42.40 26L37.55 26L37.55 23.35L37.37 23.35Q36.91 24.24 36.14 24.91Q35.38 25.59 34.29 25.98Q33.20 26.38 31.79 26.38ZM33.24 22.77L33.24 22.77Q34.45 22.77 35.37 22.29Q36.28 21.81 36.79 20.99Q37.31 20.17 37.31 19.16L37.31 19.16L37.31 17.10Q37.08 17.27 36.62 17.40Q36.16 17.54 35.60 17.64Q35.03 17.75 34.49 17.83Q33.94 17.92 33.51 17.97L33.51 17.97Q32.57 18.10 31.85 18.41Q31.14 18.72 30.74 19.22Q30.35 19.73 30.35 20.51L30.35 20.51Q30.35 21.25 30.73 21.75Q31.10 22.26 31.75 22.51Q32.40 22.77 33.24 22.77ZM55.20 26.32L55.20 26.32Q53.64 26.32 52.57 25.79Q51.49 25.27 50.81 24.49Q50.14 23.71 49.78 22.94L49.78 22.94L49.54 22.94L49.54 26L44.50 26L44.50 0.54L49.63 0.54L49.63 10.11L49.78 10.11Q50.14 9.35 50.80 8.55Q51.45 7.75 52.53 7.20Q53.61 6.65 55.23 6.65L55.23 6.65Q57.35 6.65 59.11 7.75Q60.87 8.84 61.92 11.03Q62.97 13.22 62.97 16.48L62.97 16.48Q62.97 19.66 61.95 21.86Q60.92 24.05 59.16 25.19Q57.40 26.32 55.20 26.32ZM53.63 22.21L53.63 22.21Q54.96 22.21 55.87 21.47Q56.79 20.74 57.26 19.44Q57.73 18.14 57.73 16.46L57.73 16.46Q57.73 14.79 57.26 13.51Q56.79 12.23 55.88 11.49Q54.98 10.76 53.63 10.76L53.63 10.76Q52.31 10.76 51.39 11.47Q50.46 12.17 49.99 13.45Q49.51 14.72 49.51 16.46L49.51 16.46Q49.51 18.19 49.99 19.48Q50.48 20.77 51.40 21.49Q52.33 22.21 53.63 22.21ZM73.36 26L73.36 26L66.77 26L66.77 21.51L73.11 21.51Q75.57 21.51 77.23 20.63Q78.90 19.76 79.74 17.93Q80.57 16.10 80.57 13.25L80.57 13.25Q80.57 10.41 79.73 8.59Q78.88 6.77 77.23 5.90Q75.58 5.03 73.14 5.03L73.14 5.03L66.65 5.03L66.65 0.54L73.45 0.54Q77.28 0.54 80.04 2.07Q82.80 3.60 84.28 6.44Q85.77 9.29 85.77 13.25L85.77 13.25Q85.77 17.23 84.28 20.09Q82.80 22.94 80.02 24.47Q77.24 26 73.36 26ZM64.41 0.54L69.62 0.54L69.62 26L64.41 26L64.41 0.54ZM95.92 26.38L95.92 26.38Q93.00 26.38 90.88 25.18Q88.76 23.98 87.62 21.78Q86.48 19.57 86.48 16.55L86.48 16.55Q86.48 13.59 87.61 11.37Q88.74 9.15 90.81 7.90Q92.88 6.65 95.66 6.65L95.66 6.65Q97.54 6.65 99.17 7.25Q100.79 7.85 102.02 9.06Q103.25 10.26 103.94 12.07Q104.63 13.88 104.63 16.34L104.63 16.34L104.63 17.78L88.59 17.78L88.59 14.57L102.12 14.57L99.73 15.42Q99.73 13.93 99.28 12.83Q98.82 11.73 97.93 11.12Q97.03 10.52 95.71 10.52L95.71 10.52Q94.38 10.52 93.45 11.13Q92.52 11.75 92.04 12.80Q91.56 13.85 91.56 15.20L91.56 15.20L91.56 17.47Q91.56 19.13 92.12 20.26Q92.67 21.39 93.67 21.95Q94.67 22.51 96.00 22.51L96.00 22.51Q96.91 22.51 97.64 22.26Q98.38 22.00 98.90 21.50Q99.42 20.99 99.70 20.26L99.70 20.26L104.34 21.13Q103.88 22.70 102.74 23.89Q101.59 25.08 99.87 25.73Q98.16 26.38 95.92 26.38ZM113.45 26.38L113.45 26.38Q111.14 26.38 109.37 25.72Q107.59 25.06 106.46 23.80Q105.33 22.55 105.01 20.77L105.01 20.77L109.78 19.95Q110.15 21.28 111.09 21.95Q112.03 22.62 113.60 22.62L113.60 22.62Q115.07 22.62 115.92 22.06Q116.77 21.51 116.77 20.65L116.77 20.65Q116.77 19.90 116.16 19.42Q115.55 18.94 114.31 18.69L114.31 18.69L111.01 18.00Q108.24 17.44 106.87 16.08Q105.50 14.72 105.50 12.58L105.50 12.58Q105.50 10.74 106.51 9.41Q107.52 8.09 109.31 7.37Q111.11 6.65 113.54 6.65L113.54 6.65Q115.79 6.65 117.45 7.28Q119.11 7.90 120.13 9.05Q121.16 10.19 121.50 11.75L121.50 11.75L116.95 12.55Q116.66 11.58 115.83 10.95Q115.01 10.33 113.60 10.33L113.60 10.33Q112.34 10.33 111.49 10.86Q110.63 11.39 110.63 12.28L110.63 12.28Q110.63 12.99 111.19 13.49Q111.74 13.99 113.09 14.26L113.09 14.26L116.53 14.94Q119.30 15.51 120.65 16.78Q122.00 18.05 122.00 20.10L122.00 20.10Q122.00 21.98 120.90 23.39Q119.81 24.80 117.89 25.59Q115.96 26.38 113.45 26.38ZM131.32 16.48L127.84 20.41L127.84 14.24L128.61 14.24L134.86 6.89L140.79 6.89L132.54 16.48L131.32 16.48ZM128.32 26L123.19 26L123.19 0.54L128.32 0.54L128.32 26ZM141.15 26L135.12 26L129.38 17.63L132.81 13.99L141.15 26Z" fill="#111111"></path></g>
        
      </svg>